<mxfile host="app.diagrams.net" modified="2023-07-04T03:01:23.992Z" agent="Mozilla/5.0 (Windows NT 10.0; Win64; x64) AppleWebKit/537.36 (KHTML, like Gecko) Chrome/116.0.0.0 Safari/537.36 Edg/116.0.0.0" version="21.5.2" etag="scgBk4PUWQ19OUKtElI7" type="github">
  <diagram name="Page-1" id="-wvCnz-vB2_pGVEZ9Fk_">
    <mxGraphModel>
      <root>
        <mxCell id="0" />
        <mxCell id="1" parent="0" />
      </root>
    </mxGraphModel>
  </diagram>
</mxfile>
